<mxfile host="app.diagrams.net" agent="Mozilla/5.0 (Windows NT 10.0; Win64; x64) AppleWebKit/537.36 (KHTML, like Gecko) Chrome/139.0.0.0 Safari/537.36" version="28.1.0">
  <diagram name="Page-1" id="MN-SGmf_9BTFtfGJTifK">
    <mxGraphModel dx="1172" dy="1380" grid="1" gridSize="10" guides="1" tooltips="1" connect="1" arrows="1" fold="1" page="1" pageScale="1" pageWidth="850" pageHeight="1100" math="0" shadow="0">
      <root>
        <mxCell id="0" />
        <mxCell id="1" parent="0" />
        <mxCell id="nVJ3qm0PzCzE_op7p1Hs-1" value="" style="strokeWidth=2;html=1;shape=mxgraph.flowchart.annotation_2;align=left;labelPosition=right;pointerEvents=1;rotation=-180;" vertex="1" parent="1">
          <mxGeometry x="387" y="395" width="97" height="105" as="geometry" />
        </mxCell>
        <mxCell id="nVJ3qm0PzCzE_op7p1Hs-3" value="" style="verticalLabelPosition=bottom;verticalAlign=top;html=1;shape=mxgraph.basic.rect;fillColor2=none;strokeWidth=1;size=20;indent=5;" vertex="1" parent="1">
          <mxGeometry x="27" y="580" width="120" height="60" as="geometry" />
        </mxCell>
        <mxCell id="nVJ3qm0PzCzE_op7p1Hs-7" value="" style="verticalLabelPosition=bottom;verticalAlign=top;html=1;shape=mxgraph.basic.rect;fillColor2=none;strokeWidth=1;size=20;indent=5;" vertex="1" parent="1">
          <mxGeometry x="27" y="395" width="120" height="60" as="geometry" />
        </mxCell>
        <mxCell id="nVJ3qm0PzCzE_op7p1Hs-9" value="Sunday Aug 10" style="text;html=1;align=center;verticalAlign=middle;whiteSpace=wrap;rounded=0;" vertex="1" parent="1">
          <mxGeometry x="31.319999999999993" y="290" width="100" height="30" as="geometry" />
        </mxCell>
        <mxCell id="nVJ3qm0PzCzE_op7p1Hs-15" value="#7 PGH ELITE" style="text;html=1;align=center;verticalAlign=middle;whiteSpace=wrap;rounded=0;" vertex="1" parent="1">
          <mxGeometry x="44.5" y="580" width="85" height="30" as="geometry" />
        </mxCell>
        <mxCell id="nVJ3qm0PzCzE_op7p1Hs-18" value="#10 Nate &amp;amp; Friends" style="text;html=1;align=center;verticalAlign=middle;whiteSpace=wrap;rounded=0;" vertex="1" parent="1">
          <mxGeometry x="32" y="610" width="115" height="40" as="geometry" />
        </mxCell>
        <mxCell id="nVJ3qm0PzCzE_op7p1Hs-19" value="" style="endArrow=none;html=1;rounded=0;fontSize=12;startSize=8;endSize=8;curved=1;exitX=0;exitY=0.5;exitDx=0;exitDy=0;exitPerimeter=0;" edge="1" parent="1" source="nVJ3qm0PzCzE_op7p1Hs-3">
          <mxGeometry width="50" height="50" relative="1" as="geometry">
            <mxPoint x="47" y="600" as="sourcePoint" />
            <mxPoint x="147" y="610" as="targetPoint" />
          </mxGeometry>
        </mxCell>
        <mxCell id="nVJ3qm0PzCzE_op7p1Hs-20" value="# 8 Diddy Party" style="text;html=1;align=center;verticalAlign=middle;whiteSpace=wrap;rounded=0;" vertex="1" parent="1">
          <mxGeometry x="47" y="395" width="90" height="30" as="geometry" />
        </mxCell>
        <mxCell id="nVJ3qm0PzCzE_op7p1Hs-21" value="" style="endArrow=none;html=1;rounded=0;fontSize=12;startSize=8;endSize=8;curved=1;entryX=1;entryY=0.532;entryDx=0;entryDy=0;entryPerimeter=0;exitX=0.005;exitY=0.519;exitDx=0;exitDy=0;exitPerimeter=0;" edge="1" parent="1" source="nVJ3qm0PzCzE_op7p1Hs-7" target="nVJ3qm0PzCzE_op7p1Hs-7">
          <mxGeometry width="50" height="50" relative="1" as="geometry">
            <mxPoint x="-13" y="535" as="sourcePoint" />
            <mxPoint x="37" y="485" as="targetPoint" />
            <Array as="points" />
          </mxGeometry>
        </mxCell>
        <mxCell id="nVJ3qm0PzCzE_op7p1Hs-23" value="# 9 Redeem Team" style="text;html=1;align=center;verticalAlign=middle;whiteSpace=wrap;rounded=0;" vertex="1" parent="1">
          <mxGeometry x="37" y="425" width="100" height="30" as="geometry" />
        </mxCell>
        <mxCell id="nVJ3qm0PzCzE_op7p1Hs-33" value="" style="verticalLabelPosition=bottom;verticalAlign=top;html=1;shape=mxgraph.basic.rect;fillColor2=none;strokeWidth=1;size=20;indent=5;" vertex="1" parent="1">
          <mxGeometry x="258.25" y="640" width="125" height="60" as="geometry" />
        </mxCell>
        <mxCell id="nVJ3qm0PzCzE_op7p1Hs-34" value="#2 Plum&#39;s Finest" style="text;html=1;align=center;verticalAlign=middle;whiteSpace=wrap;rounded=0;" vertex="1" parent="1">
          <mxGeometry x="274.5" y="670" width="97.5" height="30" as="geometry" />
        </mxCell>
        <mxCell id="nVJ3qm0PzCzE_op7p1Hs-35" value="" style="endArrow=none;html=1;rounded=0;fontSize=12;startSize=8;endSize=8;curved=1;exitX=0.005;exitY=0.519;exitDx=0;exitDy=0;exitPerimeter=0;entryX=0.998;entryY=0.529;entryDx=0;entryDy=0;entryPerimeter=0;" edge="1" parent="1" source="nVJ3qm0PzCzE_op7p1Hs-33" target="nVJ3qm0PzCzE_op7p1Hs-33">
          <mxGeometry width="50" height="50" relative="1" as="geometry">
            <mxPoint x="225.75" y="780" as="sourcePoint" />
            <mxPoint x="378.25" y="670" as="targetPoint" />
            <Array as="points">
              <mxPoint x="318.25" y="670" />
            </Array>
          </mxGeometry>
        </mxCell>
        <mxCell id="nVJ3qm0PzCzE_op7p1Hs-36" value="#7 PGH Elite" style="text;html=1;align=center;verticalAlign=middle;whiteSpace=wrap;rounded=0;" vertex="1" parent="1">
          <mxGeometry x="272" y="640" width="100" height="40" as="geometry" />
        </mxCell>
        <mxCell id="nVJ3qm0PzCzE_op7p1Hs-38" value="" style="verticalLabelPosition=bottom;verticalAlign=top;html=1;shape=mxgraph.basic.rect;fillColor2=none;strokeWidth=1;size=20;indent=5;" vertex="1" parent="1">
          <mxGeometry x="257" y="370" width="125" height="60" as="geometry" />
        </mxCell>
        <mxCell id="nVJ3qm0PzCzE_op7p1Hs-39" value="# 8 Diddy Party" style="text;html=1;align=center;verticalAlign=middle;whiteSpace=wrap;rounded=0;" vertex="1" parent="1">
          <mxGeometry x="277" y="370" width="87.5" height="30" as="geometry" />
        </mxCell>
        <mxCell id="nVJ3qm0PzCzE_op7p1Hs-40" value="#1 Yinzers" style="text;html=1;align=center;verticalAlign=middle;whiteSpace=wrap;rounded=0;" vertex="1" parent="1">
          <mxGeometry x="289.5" y="400" width="60" height="30" as="geometry" />
        </mxCell>
        <mxCell id="nVJ3qm0PzCzE_op7p1Hs-41" value="" style="endArrow=none;html=1;rounded=0;fontSize=12;startSize=8;endSize=8;curved=1;entryX=0.994;entryY=0.52;entryDx=0;entryDy=0;entryPerimeter=0;exitX=-0.003;exitY=0.517;exitDx=0;exitDy=0;exitPerimeter=0;" edge="1" parent="1" source="nVJ3qm0PzCzE_op7p1Hs-38" target="nVJ3qm0PzCzE_op7p1Hs-38">
          <mxGeometry width="50" height="50" relative="1" as="geometry">
            <mxPoint x="257.5" y="399" as="sourcePoint" />
            <mxPoint x="381.5" y="400" as="targetPoint" />
            <Array as="points" />
          </mxGeometry>
        </mxCell>
        <mxCell id="nVJ3qm0PzCzE_op7p1Hs-44" value="" style="verticalLabelPosition=bottom;verticalAlign=top;html=1;shape=mxgraph.basic.rect;fillColor2=none;strokeWidth=1;size=20;indent=5;" vertex="1" parent="1">
          <mxGeometry x="257" y="550" width="125" height="60" as="geometry" />
        </mxCell>
        <mxCell id="nVJ3qm0PzCzE_op7p1Hs-45" value="#4 Diddy&#39;s Lawyers" style="text;html=1;align=center;verticalAlign=middle;whiteSpace=wrap;rounded=0;" vertex="1" parent="1">
          <mxGeometry x="265.56" y="550" width="109.62" height="30" as="geometry" />
        </mxCell>
        <mxCell id="nVJ3qm0PzCzE_op7p1Hs-46" value="#5 Beltzboys" style="text;html=1;align=center;verticalAlign=middle;whiteSpace=wrap;rounded=0;" vertex="1" parent="1">
          <mxGeometry x="283.06" y="580" width="77.12" height="30" as="geometry" />
        </mxCell>
        <mxCell id="nVJ3qm0PzCzE_op7p1Hs-47" value="" style="endArrow=none;html=1;rounded=0;fontSize=12;startSize=8;endSize=8;curved=1;entryX=0.994;entryY=0.52;entryDx=0;entryDy=0;entryPerimeter=0;exitX=-0.003;exitY=0.517;exitDx=0;exitDy=0;exitPerimeter=0;" edge="1" parent="1" source="nVJ3qm0PzCzE_op7p1Hs-44" target="nVJ3qm0PzCzE_op7p1Hs-44">
          <mxGeometry width="50" height="50" relative="1" as="geometry">
            <mxPoint x="257.5" y="579" as="sourcePoint" />
            <mxPoint x="381.5" y="580" as="targetPoint" />
            <Array as="points" />
          </mxGeometry>
        </mxCell>
        <mxCell id="nVJ3qm0PzCzE_op7p1Hs-48" value="" style="verticalLabelPosition=bottom;verticalAlign=top;html=1;shape=mxgraph.basic.rect;fillColor2=none;strokeWidth=1;size=20;indent=5;" vertex="1" parent="1">
          <mxGeometry x="258.25" y="460" width="125" height="60" as="geometry" />
        </mxCell>
        <mxCell id="nVJ3qm0PzCzE_op7p1Hs-49" value="" style="endArrow=none;html=1;rounded=0;fontSize=12;startSize=8;endSize=8;curved=1;entryX=1;entryY=0.532;entryDx=0;entryDy=0;entryPerimeter=0;exitX=0.005;exitY=0.519;exitDx=0;exitDy=0;exitPerimeter=0;" edge="1" parent="1">
          <mxGeometry width="50" height="50" relative="1" as="geometry">
            <mxPoint x="258.25" y="489.29" as="sourcePoint" />
            <mxPoint x="382.625" y="490.2000000000001" as="targetPoint" />
            <Array as="points" />
          </mxGeometry>
        </mxCell>
        <mxCell id="nVJ3qm0PzCzE_op7p1Hs-50" value="#6 PALakers" style="text;html=1;align=center;verticalAlign=middle;whiteSpace=wrap;rounded=0;" vertex="1" parent="1">
          <mxGeometry x="268.25" y="465" width="100" height="30" as="geometry" />
        </mxCell>
        <mxCell id="nVJ3qm0PzCzE_op7p1Hs-51" value="#3 Treyway" style="text;html=1;align=center;verticalAlign=middle;whiteSpace=wrap;rounded=0;" vertex="1" parent="1">
          <mxGeometry x="258.25" y="490" width="120" height="30" as="geometry" />
        </mxCell>
        <mxCell id="nVJ3qm0PzCzE_op7p1Hs-52" value="" style="strokeWidth=2;html=1;shape=mxgraph.flowchart.annotation_2;align=left;labelPosition=right;pointerEvents=1;rotation=-180;" vertex="1" parent="1">
          <mxGeometry x="383.25" y="580" width="94.25" height="95" as="geometry" />
        </mxCell>
        <mxCell id="nVJ3qm0PzCzE_op7p1Hs-53" value="" style="endArrow=none;html=1;rounded=0;fontSize=12;startSize=8;endSize=8;curved=1;" edge="1" parent="1">
          <mxGeometry width="50" height="50" relative="1" as="geometry">
            <mxPoint x="167" y="675" as="sourcePoint" />
            <mxPoint x="258.25" y="675" as="targetPoint" />
          </mxGeometry>
        </mxCell>
        <mxCell id="nVJ3qm0PzCzE_op7p1Hs-54" value="" style="verticalLabelPosition=bottom;verticalAlign=top;html=1;shape=mxgraph.basic.rect;fillColor2=none;strokeWidth=1;size=20;indent=5;" vertex="1" parent="1">
          <mxGeometry x="27" y="485" width="120" height="60" as="geometry" />
        </mxCell>
        <mxCell id="nVJ3qm0PzCzE_op7p1Hs-55" value="#6 PALakers" style="text;html=1;align=center;verticalAlign=middle;whiteSpace=wrap;rounded=0;" vertex="1" parent="1">
          <mxGeometry x="44.5" y="485" width="85" height="30" as="geometry" />
        </mxCell>
        <mxCell id="nVJ3qm0PzCzE_op7p1Hs-56" value="" style="endArrow=none;html=1;rounded=0;fontSize=12;startSize=8;endSize=8;curved=1;exitX=0.005;exitY=0.454;exitDx=0;exitDy=0;exitPerimeter=0;entryX=0.998;entryY=0.452;entryDx=0;entryDy=0;entryPerimeter=0;" edge="1" parent="1" source="nVJ3qm0PzCzE_op7p1Hs-54" target="nVJ3qm0PzCzE_op7p1Hs-54">
          <mxGeometry width="50" height="50" relative="1" as="geometry">
            <mxPoint x="47" y="500" as="sourcePoint" />
            <mxPoint x="147" y="511" as="targetPoint" />
          </mxGeometry>
        </mxCell>
        <mxCell id="nVJ3qm0PzCzE_op7p1Hs-58" value="#11 Indiana Bones &amp;amp; the Womb Raiders" style="text;html=1;align=center;verticalAlign=middle;whiteSpace=wrap;rounded=0;" vertex="1" parent="1">
          <mxGeometry x="27" y="510" width="120" height="35" as="geometry" />
        </mxCell>
        <mxCell id="nVJ3qm0PzCzE_op7p1Hs-66" value="" style="endArrow=none;html=1;rounded=0;fontSize=12;startSize=8;endSize=8;curved=1;" edge="1" parent="1">
          <mxGeometry width="50" height="50" relative="1" as="geometry">
            <mxPoint x="145.56" y="610" as="sourcePoint" />
            <mxPoint x="167" y="610" as="targetPoint" />
          </mxGeometry>
        </mxCell>
        <mxCell id="nVJ3qm0PzCzE_op7p1Hs-67" value="" style="endArrow=none;html=1;rounded=0;fontSize=12;startSize=8;endSize=8;curved=1;" edge="1" parent="1">
          <mxGeometry width="50" height="50" relative="1" as="geometry">
            <mxPoint x="167" y="670" as="sourcePoint" />
            <mxPoint x="167" y="610" as="targetPoint" />
          </mxGeometry>
        </mxCell>
        <mxCell id="nVJ3qm0PzCzE_op7p1Hs-77" value="" style="endArrow=none;html=1;rounded=0;fontSize=12;startSize=8;endSize=8;curved=1;exitX=1;exitY=0;exitDx=0;exitDy=0;" edge="1" parent="1" source="nVJ3qm0PzCzE_op7p1Hs-58">
          <mxGeometry width="50" height="50" relative="1" as="geometry">
            <mxPoint x="117" y="580" as="sourcePoint" />
            <mxPoint x="167" y="510" as="targetPoint" />
          </mxGeometry>
        </mxCell>
        <mxCell id="nVJ3qm0PzCzE_op7p1Hs-78" value="" style="endArrow=none;html=1;rounded=0;fontSize=12;startSize=8;endSize=8;curved=1;entryX=-0.001;entryY=0.627;entryDx=0;entryDy=0;entryPerimeter=0;" edge="1" parent="1" target="nVJ3qm0PzCzE_op7p1Hs-48">
          <mxGeometry width="50" height="50" relative="1" as="geometry">
            <mxPoint x="167" y="498" as="sourcePoint" />
            <mxPoint x="188.25" y="485" as="targetPoint" />
          </mxGeometry>
        </mxCell>
        <mxCell id="nVJ3qm0PzCzE_op7p1Hs-79" value="" style="endArrow=none;html=1;rounded=0;fontSize=12;startSize=8;endSize=8;curved=1;" edge="1" parent="1">
          <mxGeometry width="50" height="50" relative="1" as="geometry">
            <mxPoint x="167" y="425" as="sourcePoint" />
            <mxPoint x="167" y="410" as="targetPoint" />
          </mxGeometry>
        </mxCell>
        <mxCell id="nVJ3qm0PzCzE_op7p1Hs-80" value="" style="endArrow=none;html=1;rounded=0;fontSize=12;startSize=8;endSize=8;curved=1;exitX=1;exitY=0;exitDx=0;exitDy=0;" edge="1" parent="1">
          <mxGeometry width="50" height="50" relative="1" as="geometry">
            <mxPoint x="147" y="425" as="sourcePoint" />
            <mxPoint x="167" y="425" as="targetPoint" />
          </mxGeometry>
        </mxCell>
        <mxCell id="nVJ3qm0PzCzE_op7p1Hs-81" value="" style="endArrow=none;html=1;rounded=0;fontSize=12;startSize=8;endSize=8;curved=1;entryX=0;entryY=0.67;entryDx=0;entryDy=0;entryPerimeter=0;" edge="1" parent="1" target="nVJ3qm0PzCzE_op7p1Hs-38">
          <mxGeometry width="50" height="50" relative="1" as="geometry">
            <mxPoint x="167" y="410" as="sourcePoint" />
            <mxPoint x="214.5" y="409.95" as="targetPoint" />
          </mxGeometry>
        </mxCell>
        <mxCell id="nVJ3qm0PzCzE_op7p1Hs-82" value="Sunday Aug 17" style="text;html=1;align=center;verticalAlign=middle;whiteSpace=wrap;rounded=0;" vertex="1" parent="1">
          <mxGeometry x="264.5" y="290" width="100" height="30" as="geometry" />
        </mxCell>
        <mxCell id="nVJ3qm0PzCzE_op7p1Hs-83" value="&lt;b&gt;6:30PM&lt;/b&gt;" style="text;html=1;align=center;verticalAlign=middle;whiteSpace=wrap;rounded=0;" vertex="1" parent="1">
          <mxGeometry x="198.25" y="385" width="60" height="30" as="geometry" />
        </mxCell>
        <mxCell id="nVJ3qm0PzCzE_op7p1Hs-84" value="&lt;b&gt;6:30PM&lt;/b&gt;" style="text;html=1;align=center;verticalAlign=middle;whiteSpace=wrap;rounded=0;" vertex="1" parent="1">
          <mxGeometry x="194.5" y="475" width="60" height="30" as="geometry" />
        </mxCell>
        <mxCell id="nVJ3qm0PzCzE_op7p1Hs-87" value="&lt;b&gt;7:30PM&lt;/b&gt;" style="text;html=1;align=center;verticalAlign=middle;whiteSpace=wrap;rounded=0;" vertex="1" parent="1">
          <mxGeometry x="194.5" y="565" width="60" height="30" as="geometry" />
        </mxCell>
        <mxCell id="nVJ3qm0PzCzE_op7p1Hs-90" value="&lt;b&gt;7:30PM&lt;/b&gt;" style="text;html=1;align=center;verticalAlign=middle;whiteSpace=wrap;rounded=0;" vertex="1" parent="1">
          <mxGeometry x="197" y="655" width="60" height="30" as="geometry" />
        </mxCell>
        <mxCell id="nVJ3qm0PzCzE_op7p1Hs-91" value="" style="endArrow=none;html=1;rounded=0;fontSize=12;startSize=8;endSize=8;curved=1;" edge="1" parent="1">
          <mxGeometry width="50" height="50" relative="1" as="geometry">
            <mxPoint x="167" y="510" as="sourcePoint" />
            <mxPoint x="167" y="500" as="targetPoint" />
          </mxGeometry>
        </mxCell>
        <mxCell id="nVJ3qm0PzCzE_op7p1Hs-92" value="" style="rounded=0;whiteSpace=wrap;html=1;" vertex="1" parent="1">
          <mxGeometry x="477" y="415" width="120" height="60" as="geometry" />
        </mxCell>
        <mxCell id="nVJ3qm0PzCzE_op7p1Hs-93" value="" style="rounded=0;whiteSpace=wrap;html=1;" vertex="1" parent="1">
          <mxGeometry x="477" y="597.5" width="120" height="60" as="geometry" />
        </mxCell>
        <mxCell id="nVJ3qm0PzCzE_op7p1Hs-94" value="" style="endArrow=none;html=1;rounded=0;fontSize=12;startSize=8;endSize=8;curved=1;exitX=1;exitY=0.5;exitDx=0;exitDy=0;entryX=0;entryY=0.5;entryDx=0;entryDy=0;" edge="1" parent="1">
          <mxGeometry width="50" height="50" relative="1" as="geometry">
            <mxPoint x="597" y="447.26" as="sourcePoint" />
            <mxPoint x="477" y="447.26" as="targetPoint" />
          </mxGeometry>
        </mxCell>
        <mxCell id="nVJ3qm0PzCzE_op7p1Hs-95" value="" style="endArrow=none;html=1;rounded=0;fontSize=12;startSize=8;endSize=8;curved=1;entryX=1;entryY=0.5;entryDx=0;entryDy=0;exitX=0;exitY=0.5;exitDx=0;exitDy=0;" edge="1" parent="1" source="nVJ3qm0PzCzE_op7p1Hs-93" target="nVJ3qm0PzCzE_op7p1Hs-93">
          <mxGeometry width="50" height="50" relative="1" as="geometry">
            <mxPoint x="477" y="630" as="sourcePoint" />
            <mxPoint x="527" y="580" as="targetPoint" />
          </mxGeometry>
        </mxCell>
        <mxCell id="nVJ3qm0PzCzE_op7p1Hs-98" value="TBD" style="text;html=1;align=center;verticalAlign=middle;whiteSpace=wrap;rounded=0;" vertex="1" parent="1">
          <mxGeometry x="497" y="290" width="60" height="30" as="geometry" />
        </mxCell>
        <mxCell id="nVJ3qm0PzCzE_op7p1Hs-99" value="TBD" style="text;html=1;align=center;verticalAlign=middle;whiteSpace=wrap;rounded=0;" vertex="1" parent="1">
          <mxGeometry x="507" y="420" width="60" height="30" as="geometry" />
        </mxCell>
        <mxCell id="nVJ3qm0PzCzE_op7p1Hs-100" value="TBD" style="text;html=1;align=center;verticalAlign=middle;whiteSpace=wrap;rounded=0;" vertex="1" parent="1">
          <mxGeometry x="507" y="445" width="60" height="30" as="geometry" />
        </mxCell>
        <mxCell id="nVJ3qm0PzCzE_op7p1Hs-101" value="TBD" style="text;html=1;align=center;verticalAlign=middle;whiteSpace=wrap;rounded=0;" vertex="1" parent="1">
          <mxGeometry x="507" y="597.5" width="60" height="30" as="geometry" />
        </mxCell>
        <mxCell id="nVJ3qm0PzCzE_op7p1Hs-102" value="TBD" style="text;html=1;align=center;verticalAlign=middle;whiteSpace=wrap;rounded=0;" vertex="1" parent="1">
          <mxGeometry x="507" y="627.5" width="60" height="30" as="geometry" />
        </mxCell>
        <mxCell id="nVJ3qm0PzCzE_op7p1Hs-104" value="" style="rounded=0;whiteSpace=wrap;html=1;" vertex="1" parent="1">
          <mxGeometry x="650" y="510" width="120" height="60" as="geometry" />
        </mxCell>
        <mxCell id="nVJ3qm0PzCzE_op7p1Hs-105" value="" style="endArrow=none;html=1;rounded=0;fontSize=12;startSize=8;endSize=8;curved=1;exitX=1;exitY=0.5;exitDx=0;exitDy=0;entryX=0;entryY=0.5;entryDx=0;entryDy=0;" edge="1" parent="1">
          <mxGeometry width="50" height="50" relative="1" as="geometry">
            <mxPoint x="770" y="542.26" as="sourcePoint" />
            <mxPoint x="650" y="542.26" as="targetPoint" />
          </mxGeometry>
        </mxCell>
        <mxCell id="nVJ3qm0PzCzE_op7p1Hs-106" value="TBD" style="text;html=1;align=center;verticalAlign=middle;whiteSpace=wrap;rounded=0;" vertex="1" parent="1">
          <mxGeometry x="680" y="515" width="60" height="30" as="geometry" />
        </mxCell>
        <mxCell id="nVJ3qm0PzCzE_op7p1Hs-107" value="TBD" style="text;html=1;align=center;verticalAlign=middle;whiteSpace=wrap;rounded=0;" vertex="1" parent="1">
          <mxGeometry x="680" y="540" width="60" height="30" as="geometry" />
        </mxCell>
        <mxCell id="nVJ3qm0PzCzE_op7p1Hs-108" value="" style="strokeWidth=2;html=1;shape=mxgraph.flowchart.annotation_2;align=left;labelPosition=right;pointerEvents=1;rotation=-180;" vertex="1" parent="1">
          <mxGeometry x="600" y="455" width="50" height="170" as="geometry" />
        </mxCell>
        <mxCell id="nVJ3qm0PzCzE_op7p1Hs-109" value="TBD" style="text;html=1;align=center;verticalAlign=middle;whiteSpace=wrap;rounded=0;" vertex="1" parent="1">
          <mxGeometry x="670" y="290" width="60" height="30" as="geometry" />
        </mxCell>
        <mxCell id="nVJ3qm0PzCzE_op7p1Hs-110" value="TBD" style="text;html=1;align=center;verticalAlign=middle;whiteSpace=wrap;rounded=0;" vertex="1" parent="1">
          <mxGeometry x="430" y="420" width="60" height="30" as="geometry" />
        </mxCell>
        <mxCell id="nVJ3qm0PzCzE_op7p1Hs-111" value="TBD" style="text;html=1;align=center;verticalAlign=middle;whiteSpace=wrap;rounded=0;" vertex="1" parent="1">
          <mxGeometry x="425" y="597.5" width="60" height="30" as="geometry" />
        </mxCell>
        <mxCell id="nVJ3qm0PzCzE_op7p1Hs-112" value="Championship" style="text;html=1;align=center;verticalAlign=middle;resizable=0;points=[];autosize=1;strokeColor=none;fillColor=none;fontSize=16;" vertex="1" parent="1">
          <mxGeometry x="645" y="465" width="130" height="30" as="geometry" />
        </mxCell>
      </root>
    </mxGraphModel>
  </diagram>
</mxfile>
